<svg xmlns="http://www.w3.org/2000/svg" viewBox="0 0 396.85 113.38"><defs><style>.cls-1{fill:#61c1d0;}.cls-2{fill:#fff;}.cls-3{fill:#d53e36;}</style></defs><g id="Layer_2" data-name="Layer 2"><g id="Layer_1-2" data-name="Layer 1"><path class="cls-1" d="M92.12,35.43V99.21A14.16,14.16,0,0,1,78,113.38H14.17A14.17,14.17,0,0,1,0,99.21V35.43A14.18,14.18,0,0,1,14.18,21.26h1.94a2.45,2.45,0,0,1,2.33,2.44,27.62,27.62,0,0,0,55.23,0A2.45,2.45,0,0,1,76,21.26H78A14.17,14.17,0,0,1,92.12,35.43Z"/><path id="sorriso" class="cls-2" d="M65.27,87.07A1.51,1.51,0,0,1,65,88l-.14.18c-.24.32-.5.63-.76.93a22.59,22.59,0,0,1-2.33,2.36,23.77,23.77,0,0,1-34.38-3.19l-.06-.08L27.18,88a1.52,1.52,0,0,1-.32-.93,1.54,1.54,0,0,1,2.71-1A19.23,19.23,0,0,0,31.47,88,21.61,21.61,0,0,0,46,93.24h.18A22,22,0,0,0,60.68,88c.41-.36.81-.75,1.19-1.15.2-.2.38-.4.57-.62l.07-.07.06-.08a1.52,1.52,0,0,1,1.16-.53A1.54,1.54,0,0,1,65.27,87.07Z"/><g id="olhos"><path class="cls-2" d="M33.57,76.85c-9.12,0-9.12-14,0-14s9.2,14,0,14"/><path class="cls-2" d="M58.49,76.85c-9.12,0-9.12-14,0-14s9.2,14,0,14"/></g><path class="cls-1" d="M46.06,0a23.7,23.7,0,1,0,23.7,23.7A23.73,23.73,0,0,0,46.06,0Z"/><path class="cls-3" d="M61.76,19.76v.09c0,.17,0,.33,0,.5a11.37,11.37,0,0,1-1.89,5.9c-.14.22-.28.41-.43.62l0,0A37.39,37.39,0,0,1,47.64,37.63l-.28.16a2.83,2.83,0,0,1-1.3.31,2.66,2.66,0,0,1-1.26-.3l-.32-.17A37.29,37.29,0,0,1,32.7,26.88q-.18-.24-.36-.51a11.47,11.47,0,0,1-1.94-5.61l0-.42c0-.16,0-.33,0-.49V19.8a8.52,8.52,0,0,1,5.34-7.89,8.66,8.66,0,0,1,3.18-.62,8.5,8.5,0,0,1,6.34,2.83l.06.07a1.08,1.08,0,0,0,.77.32,1.06,1.06,0,0,0,.8-.34l.06-.07a8.52,8.52,0,0,1,14.84,5.66Z"/><path class="cls-2" d="M50.39,22.14H48.23V20a2.17,2.17,0,1,0-4.33,0v2.16H41.73a2.17,2.17,0,0,0,0,4.33H43.9v2.16a2.17,2.17,0,1,0,4.33,0V26.47h2.16a2.17,2.17,0,0,0,0-4.33Z"/><path class="cls-1" d="M124.1,83.65l-2.18,2.75h-.29l-2.11-2.77v5h-1.58V81.5h1.81l2.06,2.72,2.08-2.72h1.79v7.08H124.1Z"/><path class="cls-1" d="M135.49,88.57H130.1V81.49h5.25v1.45h-3.71V84.3h3.49v1.39h-3.49v1.42h3.85Z"/><path class="cls-1" d="M142.47,81.49A3.26,3.26,0,0,1,146,85a3.32,3.32,0,0,1-3.52,3.59h-2.9V81.49Zm-1.34,5.62h1.34a1.88,1.88,0,0,0,2-2.15,1.84,1.84,0,0,0-2-2h-1.34Z"/><path class="cls-1" d="M150,88.57V81.49h1.57v7.08Z"/><path class="cls-1" d="M162.11,87.71a3.75,3.75,0,0,1-2.73,1,3.44,3.44,0,0,1-3.78-3.67A3.74,3.74,0,0,1,162,82.42l-1,1a2.33,2.33,0,0,0-1.61-.59,2.14,2.14,0,0,0-2.22,2.28,2.07,2.07,0,0,0,2.22,2.21,2.69,2.69,0,0,0,1.74-.68Z"/><path class="cls-1" d="M165.88,88.57V81.49h1.57v7.08Z"/><path class="cls-1" d="M176.79,86.09l-.1-2.22V81.49h1.59v7.08h-1.36L173.4,84l.06,2.32v2.21h-1.59V81.49h1.35Z"/><path class="cls-1" d="M187.71,87.36h-3.63l-.52,1.21h-1.69L185,81.49h1.72l3.18,7.08h-1.71Zm-1.81-4.27L184.68,86h2.44Z"/><path class="cls-1" d="M194.41,89.59h-.77l.15-1a.58.58,0,0,1-.55-.6.82.82,0,0,1,1.63,0A5.93,5.93,0,0,1,194.41,89.59Z"/><path class="cls-1" d="M207.67,88.74A3.71,3.71,0,1,1,211.5,85,3.53,3.53,0,0,1,207.67,88.74Zm0-6A2.22,2.22,0,0,0,205.4,85a2.28,2.28,0,1,0,2.27-2.3Z"/><path class="cls-1" d="M218.41,81.49A3.26,3.26,0,0,1,221.93,85a3.32,3.32,0,0,1-3.52,3.59h-2.9V81.49Zm-1.34,5.62h1.34a1.88,1.88,0,0,0,2-2.15,1.84,1.84,0,0,0-2-2h-1.34Z"/><path class="cls-1" d="M229.38,88.74A3.71,3.71,0,1,1,233.21,85,3.53,3.53,0,0,1,229.38,88.74Zm0-6a2.22,2.22,0,0,0-2.27,2.3,2.28,2.28,0,1,0,2.27-2.3Z"/><path class="cls-1" d="M242.15,86.09,242,83.87V81.49h1.59v7.08h-1.35L238.76,84l.06,2.32v2.21h-1.6V81.49h1.35Z"/><path class="cls-1" d="M249.59,82.89h-2.16v-1.4h5.88v1.4h-2.16v5.68h-1.56Z"/><path class="cls-1" d="M260.41,88.74A3.71,3.71,0,1,1,264.24,85,3.53,3.53,0,0,1,260.41,88.74Zm0-6a2.22,2.22,0,0,0-2.27,2.3,2.28,2.28,0,1,0,2.27-2.3Z"/><path class="cls-1" d="M269.83,81.49v5.63h3.54v1.45h-5.12V81.49Z"/><path class="cls-1" d="M280.46,88.74A3.71,3.71,0,1,1,284.29,85,3.53,3.53,0,0,1,280.46,88.74Zm0-6a2.22,2.22,0,0,0-2.27,2.3,2.28,2.28,0,1,0,2.27-2.3Z"/><path class="cls-1" d="M293.33,83.35a2.53,2.53,0,0,0-1.66-.63A2.07,2.07,0,0,0,289.44,85a2.13,2.13,0,0,0,2.23,2.28,2.33,2.33,0,0,0,1.51-.5V85.69h-1.69V84.37h3.05v3.09a3.28,3.28,0,0,1-2.88,1.31,3.75,3.75,0,1,1,0-7.49,3.45,3.45,0,0,1,2.64,1.09Z"/><path class="cls-1" d="M298.64,88.57V81.49h1.57v7.08Z"/><path class="cls-1" d="M309.64,87.36H306l-.51,1.21h-1.7L307,81.49h1.72l3.18,7.08h-1.71Zm-1.81-4.27L306.61,86h2.44Z"/><path class="cls-1" d="M325.76,88.57h-5.4V81.49h5.25v1.45h-3.7V84.3h3.49v1.39h-3.49v1.42h3.85Z"/><path class="cls-1" d="M340.46,88.57h-5.39V81.49h5.25v1.45h-3.7V84.3h3.49v1.39h-3.49v1.42h3.84Z"/><path class="cls-1" d="M348.89,81.49h1.73v.07L348.24,85l2.42,3.51v0h-1.75l-1.67-2.49-1.66,2.49h-1.75v0l2.4-3.51-2.37-3.45v-.07h1.73L347.24,84Z"/><path class="cls-1" d="M359.37,87.36h-3.63l-.52,1.21h-1.7l3.18-7.08h1.72l3.17,7.08h-1.7Zm-1.81-4.27L356.33,86h2.44Z"/><path class="cls-1" d="M371.34,83.65l-2.18,2.75h-.29l-2.11-2.77v5h-1.58V81.5H367l2.07,2.72,2.07-2.72h1.79v7.08h-1.58Z"/><path class="cls-1" d="M382.73,88.57h-5.39V81.49h5.25v1.45h-3.71V84.3h3.49v1.39h-3.49v1.42h3.85Z"/><path class="cls-1" d="M391,83.2a2.35,2.35,0,0,0-1.64-.6c-.7,0-1.26.29-1.26.78,0,.65.61.77,1.52.85,1.4.12,2.72.66,2.72,2.3s-1.45,2.26-3,2.27a3.56,3.56,0,0,1-3.1-1.45l.94-1a2.83,2.83,0,0,0,2.17,1c.84,0,1.42-.34,1.42-.84s-.47-.87-1.43-1c-1.5-.15-2.83-.52-2.81-2.19,0-1.41,1.34-2.16,2.8-2.16a3.13,3.13,0,0,1,2.64,1.1Z"/><path class="cls-1" d="M134.52,46.65h7.35a.87.87,0,0,1,.87.88V71.36a.87.87,0,0,1-.87.87h-7.18a.87.87,0,0,1-.86-.74l-.05-.36a.87.87,0,0,0-1.4-.55,8.54,8.54,0,0,1-2.81,1.49,12.91,12.91,0,0,1-4.48.63,13.14,13.14,0,0,1-5-1.22,11,11,0,0,1-3.67-2.8,12,12,0,0,1-2.26-4.09,16.56,16.56,0,0,1-.77-5.15,15.32,15.32,0,0,1,.88-5.28,12.33,12.33,0,0,1,2.51-4.22,11.89,11.89,0,0,1,3.93-2.82,12.33,12.33,0,0,1,5.1-1,10.86,10.86,0,0,1,4.61.88,7.72,7.72,0,0,1,1.76,1.14.88.88,0,0,0,1.45-.5l0-.22A.88.88,0,0,1,134.52,46.65ZM128,53.8a5,5,0,0,0-3.65,1.47,5.64,5.64,0,0,0-1.48,4.17,5.5,5.5,0,0,0,1.48,4.14A5,5,0,0,0,128,65a5.13,5.13,0,0,0,2.17-.44,4.89,4.89,0,0,0,1.68-1.21,5.5,5.5,0,0,0,1.07-1.79,6.34,6.34,0,0,0,.36-2.15,5.93,5.93,0,0,0-1.37-4.11A5,5,0,0,0,128,53.8Z"/><path class="cls-1" d="M163.71,72.23a.87.87,0,0,1-.88-.87V58a5,5,0,0,0-.7-3.08,2.41,2.41,0,0,0-2-.85,3.29,3.29,0,0,0-2.25,1,4.22,4.22,0,0,0-1.12,3.11V71.36a.87.87,0,0,1-.87.87h-7.73a.87.87,0,0,1-.87-.87V47.53a.87.87,0,0,1,.87-.88h6.47a.89.89,0,0,1,.85.67l.12.48a.86.86,0,0,0,1.41.45,7.51,7.51,0,0,1,2.11-1.34,9.19,9.19,0,0,1,3.91-.77,8.25,8.25,0,0,1,3.67.93,6,6,0,0,1,2.1,1.77.88.88,0,0,0,1.33.1,8.88,8.88,0,0,1,3-2,12.7,12.7,0,0,1,4.77-.86,10.78,10.78,0,0,1,3.85.68,8,8,0,0,1,3.11,2.09,10,10,0,0,1,2.07,3.71,17.41,17.41,0,0,1,.75,5.43V71.36a.87.87,0,0,1-.87.87H179a.87.87,0,0,1-.87-.87V58a4.24,4.24,0,0,0-.81-2.9,2.43,2.43,0,0,0-1.83-.88,3.52,3.52,0,0,0-2.26.88,3.75,3.75,0,0,0-1.06,3V71.36a.87.87,0,0,1-.87.87Z"/><path class="cls-1" d="M205.13,46.08a19.27,19.27,0,0,1,5.49.78,13.21,13.21,0,0,1,4.66,2.43,12.24,12.24,0,0,1,3.23,4.2,13.76,13.76,0,0,1,1.22,6,13.16,13.16,0,0,1-1.27,6,12.11,12.11,0,0,1-3.34,4.15,13.86,13.86,0,0,1-4.68,2.4,18.55,18.55,0,0,1-5.31.78,18.87,18.87,0,0,1-5.38-.78,13.54,13.54,0,0,1-4.69-2.4,12.1,12.1,0,0,1-3.29-4.15,13.43,13.43,0,0,1-1.24-6,13.79,13.79,0,0,1,1.24-6.11,12,12,0,0,1,3.29-4.16,13.22,13.22,0,0,1,4.66-2.39A19.53,19.53,0,0,1,205.13,46.08Zm0,19a4.9,4.9,0,0,0,3.86-1.6,5.71,5.71,0,0,0,1.42-3.94,6.17,6.17,0,0,0-.36-2.09,5.5,5.5,0,0,0-1-1.79,4.88,4.88,0,0,0-1.65-1.24,5.53,5.53,0,0,0-4.46,0,5,5,0,0,0-1.65,1.24,5.5,5.5,0,0,0-1,1.79,6.17,6.17,0,0,0-.36,2.09,5.94,5.94,0,0,0,1.37,3.89A4.81,4.81,0,0,0,205.13,65Z"/><path class="cls-1" d="M231.26,47.35l0,.2a.87.87,0,0,0,1.47.45,5.78,5.78,0,0,1,1.61-1.17,8.06,8.06,0,0,1,3.52-.8,9.9,9.9,0,0,1,3.73.7,8.14,8.14,0,0,1,2.49,1.54.89.89,0,0,1,.19,1.09l-3,5.45a.89.89,0,0,1-1.25.3,5.91,5.91,0,0,0-1.38-.69,6.83,6.83,0,0,0-2.14-.31,4.54,4.54,0,0,0-3.11,1.14,4.66,4.66,0,0,0-1.3,3.67V71.36a.87.87,0,0,1-.87.87h-7.78a.87.87,0,0,1-.87-.87V47.53a.87.87,0,0,1,.87-.88h7A.88.88,0,0,1,231.26,47.35Z"/><path class="cls-3" d="M249.32,63.51a.87.87,0,0,1,1.23-.4,17.93,17.93,0,0,0,1.95,1A16.18,16.18,0,0,0,255,65a12.74,12.74,0,0,0,2.09.36l1.74.13c1.72,0,2.59-.42,2.59-1.25s-.9-1.26-2.7-1.39a19.53,19.53,0,0,1-3.8-.5,11.44,11.44,0,0,1-3.55-1.42,8,8,0,0,1-2.61-2.56,8.07,8.07,0,0,1,0-7.82,8.17,8.17,0,0,1,2.64-2.59,11.78,11.78,0,0,1,3.75-1.45,21.89,21.89,0,0,1,4.4-.44,19.57,19.57,0,0,1,5.85.86,15.8,15.8,0,0,1,3.84,1.72.88.88,0,0,1,.26,1.25l-3.09,4.35a.85.85,0,0,1-1.08.28l-.65-.28a11.51,11.51,0,0,0-1.66-.52,17.9,17.9,0,0,0-1.78-.31,14.78,14.78,0,0,0-1.69-.1,4.38,4.38,0,0,0-1.65.26,1,1,0,0,0-.63,1,1.26,1.26,0,0,0,.37.78,2.23,2.23,0,0,0,1.55.47,25.06,25.06,0,0,1,4.09.44A12.28,12.28,0,0,1,267,57.53a7.91,7.91,0,0,1,2.8,2.53,7.28,7.28,0,0,1,1.08,4.14,7.82,7.82,0,0,1-1,4,7.93,7.93,0,0,1-2.64,2.7,11.86,11.86,0,0,1-3.81,1.5,21,21,0,0,1-4.47.46,26.48,26.48,0,0,1-3.4-.23,30.24,30.24,0,0,1-3.36-.65A18.3,18.3,0,0,1,249.16,71a16.66,16.66,0,0,1-1.89-1,.88.88,0,0,1-.35-1.11Z"/><path class="cls-3" d="M294.47,46.65h7.35a.87.87,0,0,1,.87.88V71.36a.87.87,0,0,1-.87.87h-7.18a.87.87,0,0,1-.86-.74l-.06-.36a.86.86,0,0,0-1.39-.55,8.49,8.49,0,0,1-2.82,1.49,12.82,12.82,0,0,1-4.47.63,13.14,13.14,0,0,1-5-1.22,11.1,11.1,0,0,1-3.68-2.8,12.1,12.1,0,0,1-2.25-4.09,16.27,16.27,0,0,1-.77-5.15,15.32,15.32,0,0,1,.88-5.28,12.33,12.33,0,0,1,2.51-4.22,11.69,11.69,0,0,1,3.93-2.82,12.33,12.33,0,0,1,5.1-1,10.86,10.86,0,0,1,4.61.88,7.44,7.44,0,0,1,1.75,1.14.87.87,0,0,0,1.45-.5l0-.22A.88.88,0,0,1,294.47,46.65Zm-6.53,7.15a5,5,0,0,0-3.65,1.47,5.64,5.64,0,0,0-1.48,4.17,5.5,5.5,0,0,0,1.48,4.14A5,5,0,0,0,287.94,65a5.17,5.17,0,0,0,2.17-.44,4.89,4.89,0,0,0,1.68-1.21,5.31,5.31,0,0,0,1.06-1.79,6.11,6.11,0,0,0,.37-2.15,5.89,5.89,0,0,0-1.38-4.11A5,5,0,0,0,287.94,53.8Z"/><path class="cls-3" d="M315.76,46.65a1,1,0,0,1,1,1V60.79a5.69,5.69,0,0,0,.31,2,3.89,3.89,0,0,0,.81,1.32,2.57,2.57,0,0,0,1.14.73,4.54,4.54,0,0,0,1.32.2,4.66,4.66,0,0,0,3-1.11,4.47,4.47,0,0,0,1.35-3.65V47.66a1,1,0,0,1,1-1h7.4a1,1,0,0,1,1,1V71.22a1,1,0,0,1-1,1H326.6a1,1,0,0,1-1-.86h0a1,1,0,0,0-1.63-.63,9,9,0,0,1-2.51,1.39,11.79,11.79,0,0,1-4.22.72,12.38,12.38,0,0,1-3.83-.59,8,8,0,0,1-3.19-2,9.72,9.72,0,0,1-2.17-3.7,17.44,17.44,0,0,1-.8-5.72V47.66a1,1,0,0,1,1-1Z"/><path class="cls-3" d="M329.59,35.77a.46.46,0,0,0-.41-.24h-8a1.09,1.09,0,0,0-1,.62L317,42.87a.46.46,0,0,0,.42.67h6.69a1.1,1.1,0,0,0,.9-.46l4.59-6.83A.46.46,0,0,0,329.59,35.77Z"/><path class="cls-3" d="M357.41,35.53h7.78a.87.87,0,0,1,.87.87v35a.87.87,0,0,1-.87.87h-6.87a.87.87,0,0,1-.86-.74l0-.36a.87.87,0,0,0-1.4-.55,8.54,8.54,0,0,1-2.81,1.49,12.91,12.91,0,0,1-4.48.63q-5.64-.37-8.67-3.76t-3-9.5a15.61,15.61,0,0,1,.88-5.38,12.33,12.33,0,0,1,2.51-4.22,11.22,11.22,0,0,1,3.93-2.77,12.82,12.82,0,0,1,5.1-1,11.18,11.18,0,0,1,4.27.73,7.66,7.66,0,0,1,1.48.78.87.87,0,0,0,1.35-.73V36.4A.87.87,0,0,1,357.41,35.53ZM351.62,53.8A5,5,0,0,0,348,55.27a5.64,5.64,0,0,0-1.48,4.17A5.5,5.5,0,0,0,348,63.58,5,5,0,0,0,351.62,65a4.88,4.88,0,0,0,2.15-.46,5.23,5.23,0,0,0,1.6-1.19,5.43,5.43,0,0,0,1-1.69,5.57,5.57,0,0,0,.36-2,7.67,7.67,0,0,0-.33-2.23,5.87,5.87,0,0,0-1-1.89,5,5,0,0,0-1.6-1.29A4.72,4.72,0,0,0,351.62,53.8Z"/><path class="cls-3" d="M383.15,46a16.87,16.87,0,0,1,6.21,1.09A11.76,11.76,0,0,1,394,50.28a11.35,11.35,0,0,1,2.53,5.07,14.94,14.94,0,0,1,0,6.08.88.88,0,0,1-.87.7H380.05a.87.87,0,0,0-.64,1.47h0a6.06,6.06,0,0,0,1.45,1,7.07,7.07,0,0,0,1.71.59,7.69,7.69,0,0,0,1.66.19,11.1,11.1,0,0,0,3.72-.57,11.54,11.54,0,0,0,2.26-1.09.85.85,0,0,1,1.1.16l3.57,4a.86.86,0,0,1-.08,1.23,14.66,14.66,0,0,1-4.67,2.63,19.26,19.26,0,0,1-6.32,1,20.59,20.59,0,0,1-5.75-.78,13.78,13.78,0,0,1-4.73-2.38,11.15,11.15,0,0,1-3.24-4.12,14,14,0,0,1-1.19-6,13.67,13.67,0,0,1,1.24-6,12,12,0,0,1,3.26-4.19A13.88,13.88,0,0,1,378,46.83,17.28,17.28,0,0,1,383.15,46Zm3.52,10a.87.87,0,0,0,.75-1.33,3.07,3.07,0,0,0-.28-.35,4.17,4.17,0,0,0-1.66-1,7,7,0,0,0-2.12-.37,6.58,6.58,0,0,0-2.15.31,4.57,4.57,0,0,0-1.74,1,2.74,2.74,0,0,0-.32.36.87.87,0,0,0,.72,1.37Z"/></g></g></svg>